<?xml version="1.0" encoding="UTF-8" standalone="no"?>
<!DOCTYPE svg PUBLIC "-//W3C//DTD SVG 1.1//EN" "http://www.w3.org/Graphics/SVG/1.1/DTD/svg11.dtd">
<svg width="100%" height="100%" viewBox="0 0 800 800" version="1.1" xmlns="http://www.w3.org/2000/svg" xmlns:xlink="http://www.w3.org/1999/xlink" xml:space="preserve" xmlns:serif="http://www.serif.com/" style="fill-rule:evenodd;clip-rule:evenodd;stroke-linejoin:round;stroke-miterlimit:1.41421;">
    <g transform="matrix(1,0,0,1,-1186.6,-5.06033)">
        <g id="jun" transform="matrix(2.02989,0,0,1.25855,-1986.02,-407.981)">
            <rect x="1562.95" y="328.189" width="394.11" height="635.654" style="fill:none;"/>
            <clipPath id="_clip1">
                <rect x="1562.95" y="328.189" width="394.11" height="635.654"/>
            </clipPath>
            <g clip-path="url(#_clip1)">
                <g transform="matrix(0.0262751,-6.13727e-22,3.80515e-22,-0.0423838,1562.98,963.909)">
                    <path d="M6825,14993C6809,14991 6728,14983 6645,14974C6465,14955 6135,14902 5938,14860C4553,14566 3268,13879 2257,12890C1631,12279 1158,11631 775,10860C355,10017 111,9167 15,8209C-7,7992 -6,7033 15,6799C88,6028 294,5226 602,4515C1183,3177 2141,2035 3355,1234C3629,1053 3810,949 4115,795C5156,269 6176,22 7395,3C7732,-3 7962,9 8385,51C9223,135 10046,378 10850,781C11583,1148 12180,1576 12763,2149C13973,3340 14734,4879 14949,6570C14993,6914 15002,7113 14997,7598C14992,8078 14984,8201 14934,8550C14658,10492 13652,12232 12110,13436C11080,14241 9834,14769 8540,14950C8200,14997 8133,15000 7478,14999C7135,14998 6842,14995 6825,14993ZM7740,14029C7869,13994 7964,13937 8065,13835C8217,13683 8284,13524 8284,13310C8284,13096 8218,12938 8065,12785C7912,12632 7754,12566 7540,12566C7326,12566 7167,12633 7015,12785C6863,12936 6797,13096 6796,13310C6796,13523 6862,13683 7015,13835C7136,13956 7256,14019 7428,14050C7499,14063 7656,14053 7740,14029ZM7120,11942C7187,11909 7190,11894 7190,11538L7190,11220L7353,11220C7442,11220 7613,11223 7733,11227L7950,11233L7950,11530C7950,11823 7950,11828 7973,11861C7986,11880 8011,11900 8030,11907C8081,11924 13069,11924 13120,11907C13139,11900 13164,11880 13177,11861L13200,11827L13200,10343C13200,8733 13203,8820 13147,8788C13130,8778 12869,8774 11898,8770L10672,8765L10716,8655C10826,8383 10903,8068 10942,7735C10950,7669 10954,7518 10954,7355C10953,7094 10951,7077 10916,6856C10857,6492 10783,6242 10643,5936C10533,5695 10355,5408 10183,5195C10009,4979 9742,4728 9501,4557C9085,4260 8536,4033 8067,3965C7280,3851 6540,3970 5881,4316C4960,4800 4304,5679 4100,6700C4050,6950 4036,7099 4036,7375C4036,7714 4062,7932 4141,8245C4165,8343 4243,8583 4275,8663C4282,8679 4225,8680 3157,8680L2033,8680L2005,8702C1947,8747 1950,8656 1950,10331C1950,12026 1946,11904 2009,11943C2033,11958 2243,11959 4560,11960C6944,11960 7087,11959 7120,11942ZM7675,3025C7951,2953 8152,2754 8226,2479C8250,2392 8250,2208 8227,2120C8218,2084 8189,2013 8164,1961C8079,1788 7924,1655 7730,1589C7641,1558 7626,1556 7500,1556C7374,1556 7359,1558 7270,1589C7143,1632 7048,1693 6957,1789C6714,2049 6686,2437 6890,2728C7039,2940 7288,3060 7545,3043C7589,3040 7648,3032 7675,3025Z" style="fill:rgb(16,128,64);fill-rule:nonzero;"/>
                    <path d="M7380,13788C7248,13742 7150,13661 7092,13553C6983,13345 7018,13111 7184,12952C7312,12829 7487,12782 7653,12825C7834,12872 7983,13027 8021,13207C8032,13263 8029,13424 8016,13437C8012,13441 8003,13434 7994,13421C7868,13242 7598,13296 7548,13510C7527,13602 7572,13715 7647,13762C7679,13781 7681,13784 7664,13794C7653,13800 7600,13806 7545,13807C7461,13810 7434,13807 7380,13788Z" style="fill:rgb(16,128,64);fill-rule:nonzero;"/>
                    <path d="M2195,11708C2192,11701 2191,11072 2192,10310L2195,8925L3291,8922L4388,8920L4451,9037C4615,9338 4797,9579 5054,9835C5354,10134 5637,10335 6004,10510C6255,10630 6569,10735 6822,10783L6940,10805L6940,11720L4570,11720C2683,11720 2198,11717 2195,11708ZM3760,10854C4017,10779 4190,10556 4190,10302C4190,10103 4099,9931 3937,9823C3826,9748 3743,9725 3590,9725C3485,9725 3453,9729 3392,9749C3203,9811 3055,9969 3005,10160C2980,10255 2989,10402 3024,10495C3114,10733 3359,10889 3620,10875C3667,10873 3730,10863 3760,10854Z" style="fill:rgb(16,128,64);fill-rule:nonzero;"/>
                    <path d="M3483,10615C3304,10560 3196,10381 3243,10219C3300,10024 3501,9919 3699,9979C3872,10031 3979,10206 3940,10370L3928,10422L3896,10392C3851,10349 3828,10340 3767,10340C3637,10340 3558,10476 3620,10593L3640,10630L3583,10629C3551,10629 3506,10623 3483,10615Z" style="fill:rgb(16,128,64);fill-rule:nonzero;"/>
                    <path d="M8190,11225C8190,10877 8193,10779 8203,10776C8209,10774 8267,10760 8330,10745C8581,10686 8910,10558 9155,10424C9310,10339 9526,10196 9665,10085C9805,9973 10080,9698 10194,9555C10296,9427 10437,9220 10506,9097L10554,9010L11754,9012L12955,9015L12958,10343L12960,11670L10575,11670L8190,11670L8190,11225ZM11760,10854C12017,10779 12190,10556 12190,10302C12190,10103 12099,9931 11937,9823C11826,9748 11743,9725 11590,9725C11485,9725 11453,9729 11392,9749C11203,9811 11055,9969 11005,10160C10980,10255 10989,10402 11024,10495C11114,10733 11359,10889 11620,10875C11667,10873 11730,10863 11760,10854Z" style="fill:rgb(16,128,64);fill-rule:nonzero;"/>
                    <path d="M11483,10615C11347,10573 11250,10460 11234,10328C11222,10224 11277,10101 11367,10036C11552,9900 11809,9957 11910,10155C11941,10216 11945,10231 11944,10299C11944,10341 11938,10388 11932,10404L11919,10433L11892,10408C11851,10369 11826,10360 11767,10360C11705,10360 11659,10385 11623,10439C11596,10479 11592,10559 11614,10603L11629,10630L11577,10629C11548,10629 11506,10623 11483,10615Z" style="fill:rgb(16,128,64);fill-rule:nonzero;"/>
                    <path d="M7190,10910L7190,10840L7378,10846C7546,10852 7797,10841 7913,10823L7950,10817L7950,10980L7570,10980L7190,10980L7190,10910Z" style="fill:rgb(16,128,64);fill-rule:nonzero;"/>
                    <path d="M6470,7731C6440,7721 6397,7704 6375,7693C6319,7664 6239,7576 6204,7505C6177,7449 6175,7437 6175,7330C6175,7221 6177,7212 6207,7149C6248,7066 6327,6990 6417,6947C6480,6918 6493,6915 6585,6915C6676,6915 6691,6918 6753,6947C6842,6989 6919,7063 6961,7148C6994,7212 6995,7219 6995,7330C6995,7436 6993,7450 6967,7502C6874,7692 6658,7792 6470,7731Z" style="fill:rgb(16,128,64);fill-rule:nonzero;"/>
                    <path d="M8384,7707C8288,7670 8218,7610 8165,7518C8047,7311 8132,7043 8349,6937C8412,6907 8421,6905 8530,6905C8634,6905 8651,6908 8703,6932C8734,6947 8784,6982 8813,7009C8994,7180 8994,7450 8813,7621C8732,7698 8667,7724 8545,7727C8460,7730 8436,7727 8384,7707Z" style="fill:rgb(16,128,64);fill-rule:nonzero;"/>
                </g>
            </g>
        </g>
    </g>
</svg>
