<?xml version="1.0" encoding="UTF-8" standalone="no"?>
<!DOCTYPE svg PUBLIC "-//W3C//DTD SVG 1.1//EN" "http://www.w3.org/Graphics/SVG/1.1/DTD/svg11.dtd">
<svg width="100%" height="100%" viewBox="0 0 800 800" version="1.1" xmlns="http://www.w3.org/2000/svg" xmlns:xlink="http://www.w3.org/1999/xlink" xml:space="preserve" xmlns:serif="http://www.serif.com/" style="fill-rule:evenodd;clip-rule:evenodd;stroke-linejoin:round;stroke-miterlimit:2;">
    <g transform="matrix(1,0,0,1,-4535.96,-175.05)">
        <g id="jojo" transform="matrix(0.81059,0,0,1.12033,1814.46,235.154)">
            <rect x="3357.44" y="-53.648" width="986.936" height="714.073" style="fill:none;"/>
            <clipPath id="_clip1">
                <rect x="3357.44" y="-53.648" width="986.936" height="714.073"/>
            </clipPath>
            <g clip-path="url(#_clip1)">
                <g transform="matrix(1.23367,0,0,0.892591,-2238.44,-209.897)">
                    <path d="M5335.96,175.05L5335.96,975.05L4535.96,975.05L4535.96,175.05L5335.96,175.05ZM4651.66,474.313L4665.77,473.657C4665.77,473.657 4635.54,513.257 4635.54,575.298C4635.54,637.338 4664.73,676.995 4664.73,676.995L4651.97,678.044C4651.97,678.044 4615.96,635.28 4615.96,575.019C4615.96,514.757 4651.66,474.313 4651.66,474.313ZM5220.26,677.232L5206.16,677.888C5206.16,677.888 5236.39,638.288 5236.39,576.247C5236.39,514.207 5207.19,474.55 5207.19,474.55L5219.96,473.501C5219.96,473.501 5255.96,516.265 5255.96,576.526C5255.96,636.788 5220.26,677.232 5220.26,677.232ZM4890.93,519.179L4912.86,518.51C4912.86,518.51 4885.09,538.187 4885.09,578.39C4885.09,604.931 4896.57,618.845 4909.11,618.845C4932.36,618.845 4923.9,545.015 4923.9,545.015L4948.23,544.722C4948.23,544.722 4941.37,617.139 4964.1,617.139C4986.84,617.139 4986.06,586.242 4986.06,579.458C4986.06,541.684 4960.74,519.651 4960.74,519.651L4980.75,519.058C4980.75,519.058 5006.59,541.84 5006.01,580.327C5005.43,618.813 4989.31,635.649 4967.76,635.649C4944.02,635.649 4936.56,615.358 4936.56,615.358C4936.56,615.358 4930.08,636.269 4905.73,636.269C4881.37,636.269 4866.89,613.529 4864.85,581.936C4862.82,550.344 4890.93,519.179 4890.93,519.179ZM5073.24,530.584C5083.99,530.584 5091.37,538.483 5091.37,549.231C5091.37,559.978 5084.26,568.846 5073.51,568.846C5062.76,568.846 5054.24,560.666 5054.24,549.919C5054.24,539.172 5062.49,530.584 5073.24,530.584ZM4799.43,530.302C4810.18,530.302 4817.56,538.202 4817.56,548.949C4817.56,559.696 4810.44,568.564 4799.7,568.564C4788.95,568.564 4780.42,560.385 4780.42,549.638C4780.42,538.89 4788.68,530.302 4799.43,530.302ZM4706.35,472.191L4728.93,472.066L4703.77,504.21L4685.86,504.075L4706.35,472.191ZM5154.88,472.181L5132.3,472.056L5157.46,504.201L5175.37,504.065L5154.88,472.181Z"/>
                </g>
            </g>
        </g>
    </g>
</svg>
