<?xml version="1.0" encoding="UTF-8" standalone="no"?>
<!DOCTYPE svg PUBLIC "-//W3C//DTD SVG 1.1//EN" "http://www.w3.org/Graphics/SVG/1.1/DTD/svg11.dtd">
<svg width="100%" height="100%" viewBox="0 0 800 800" version="1.1" xmlns="http://www.w3.org/2000/svg" xmlns:xlink="http://www.w3.org/1999/xlink" xml:space="preserve" xmlns:serif="http://www.serif.com/" style="fill-rule:evenodd;clip-rule:evenodd;stroke-linejoin:round;stroke-miterlimit:1.41421;">
    <g transform="matrix(1,0,0,1,-23.8957,-963.734)">
        <g id="アートボード1" transform="matrix(1,0,0,1,23.8957,963.734)">
            <rect x="0" y="0" width="800" height="800" style="fill:white;fill-opacity:0;"/>
            <g transform="matrix(0.885526,0,0,0.885526,45.7905,45.7897)">
                <g transform="matrix(1,0,0,1,437.508,272)">
                    <path d="M414.2,128L207.1,256L0,128L207.1,0C276.133,42.667 345.167,85.333 414.2,128ZM68.734,128L207.1,213.518L345.466,128L207.1,42.482C160.978,70.988 114.856,99.494 68.734,128Z" style="fill:rgb(233,88,88);fill-rule:nonzero;"/>
                </g>
                <g transform="matrix(1,0,0,1,-51.71,272)">
                    <path d="M414.2,128L207.1,256L0,128L207.1,0C276.133,42.667 345.167,85.333 414.2,128ZM68.734,128L207.1,213.518L345.466,128L207.1,42.482C160.978,70.988 114.856,99.494 68.734,128Z" style="fill:rgb(233,88,88);fill-rule:nonzero;"/>
                </g>
                <g transform="matrix(1,0,0,1,192.9,420.033)">
                    <path d="M414.2,128L207.1,256L0,128L207.1,0C276.133,42.667 345.167,85.333 414.2,128ZM68.734,128L207.1,213.518L345.466,128L207.1,42.482C160.978,70.988 114.856,99.494 68.734,128Z" style="fill:rgb(233,88,88);fill-rule:nonzero;"/>
                </g>
                <g transform="matrix(1,0,0,1,192.9,123.967)">
                    <path d="M414.2,128L207.1,256L0,128L207.1,0C276.133,42.667 345.167,85.333 414.2,128ZM68.734,128L207.1,213.518L345.466,128L207.1,42.482C160.978,70.988 114.856,99.494 68.734,128Z" style="fill:rgb(233,88,88);fill-rule:nonzero;"/>
                </g>
            </g>
        </g>
    </g>
</svg>
