<?xml version="1.0" encoding="UTF-8" standalone="no"?><!DOCTYPE svg PUBLIC "-//W3C//DTD SVG 1.1//EN" "http://www.w3.org/Graphics/SVG/1.1/DTD/svg11.dtd"><svg width="100%" height="100%" viewBox="0 0 800 800" version="1.1" xmlns="http://www.w3.org/2000/svg" xmlns:xlink="http://www.w3.org/1999/xlink" xml:space="preserve" xmlns:serif="http://www.serif.com/" style="fill-rule:evenodd;clip-rule:evenodd;stroke-linejoin:round;stroke-miterlimit:2;"><rect id="アートボード1" x="0" y="0" width="800" height="800" style="fill:none;"/><clipPath id="_clip1"><rect x="0" y="0" width="800" height="800"/></clipPath><g clip-path="url(#_clip1)"><path d="M400,0c220.766,0 400,179.234 400,400c0,220.766 -179.234,400 -400,400c-220.766,0 -400,-179.234 -400,-400c0,-220.766 179.234,-400 400,-400Zm-22.063,81.214c-13.191,0.91 -40.824,5.231 -54.015,8.529c-35.821,8.87 -68.458,22.857 -98.48,42.53c-96.432,63 -151.699,171.487 -144.876,284.863c2.274,39.119 9.438,70.391 24.449,106.781c22.403,54.471 64.023,105.302 114.855,140.1c83.696,57.314 191.273,71.187 287.705,37.072c106.326,-37.641 186.156,-130.548 206.967,-240.74c7.277,-38.664 7.277,-81.991 0,-120.655c-17.627,-94.499 -81.422,-179.105 -168.416,-223.682c-51.628,-26.496 -110.534,-38.664 -168.189,-34.798Zm221.863,550.848l3.298,3.412l-2.843,2.274c-7.278,5.8 -21.833,12.623 -36.958,17.399c-7.392,2.388 -26.61,5.231 -35.139,5.231c-8.983,0 -27.86,-3.07 -35.138,-5.8l-5.914,-2.16l6.823,0.91c13.533,1.592 37.982,0.682 49.126,-1.934c16.489,-3.752 35.48,-11.826 46.966,-19.9c5.117,-3.639 5.799,-3.639 9.779,0.568Zm-380.726,4.094c20.242,11.941 41.507,17.74 66.184,17.854c7.846,0.114 17.512,-0.228 21.606,-0.682l7.392,-0.796l-5.914,2.16c-7.278,2.616 -26.155,5.686 -35.025,5.686c-16.375,0 -42.53,-6.141 -56.631,-13.191c-5.004,-2.616 -17.399,-10.007 -18.877,-11.372c-0.341,-0.341 1.251,-2.274 3.298,-4.435c3.752,-3.866 3.866,-3.98 6.709,-2.047c1.592,1.024 6.709,4.094 11.258,6.823Zm365.147,-19.673l4.89,5.004l-3.866,2.843c-5.345,4.093 -20.924,11.712 -30.59,15.01c-25.928,8.87 -59.134,8.415 -84.038,-1.137c-4.435,-1.706 -8.301,-3.525 -8.642,-4.207c-0.455,-0.683 0.113,-0.91 1.364,-0.455c6.596,2.047 23.881,4.094 34.002,4.094c26.382,0 57.655,-9.439 75.395,-22.858c2.274,-1.705 4.776,-3.184 5.344,-3.184c0.683,-0.114 3.412,2.161 6.141,4.89Zm-356.505,-2.388c10.804,8.301 31.387,16.944 49.581,20.81c13.192,2.843 41.166,2.957 53.902,0.114c5.004,-1.023 9.212,-1.706 9.439,-1.478c1.137,1.137 -17.399,7.619 -28.088,9.779c-10.007,2.047 -14.67,2.388 -28.998,1.934c-24.791,-0.683 -41.28,-5.345 -62.204,-17.74c-4.89,-2.843 -8.87,-5.8 -8.87,-6.482c0,-1.365 9.098,-9.553 10.69,-9.553c0.568,0 2.615,1.251 4.548,2.616Zm334.899,-55.267l59.247,60.043l-5.345,5.345c-2.957,3.07 -5.8,5.458 -6.254,5.458c-1.024,0 -118.381,-117.925 -118.949,-119.517c-0.455,-1.023 9.893,-11.258 11.372,-11.258c0.341,0 27.292,26.951 59.929,59.929Zm10.576,46.624l-4.89,3.412c-35.708,24.449 -86.881,27.633 -126.227,7.733c-11.372,-5.8 -32.523,-21.493 -33.66,-25.018c-0.228,-0.682 5.458,-6.937 12.509,-13.987l12.963,-12.737l98.707,0l40.598,40.597Zm53.674,-418.025c2.843,3.184 5.231,6.14 5.231,6.595c0,0.455 -4.776,5.345 -10.462,10.917c-5.799,5.458 -29.794,28.998 -53.22,52.196c-23.425,23.199 -63.34,62.659 -88.699,87.677c-25.359,25.018 -67.094,66.183 -92.68,91.542c-25.7,25.359 -80.057,79.034 -120.996,119.404c-40.824,40.37 -74.826,73.461 -75.508,73.689c-0.796,0.114 -3.867,-2.161 -6.823,-5.231l-5.345,-5.459l43.44,-43.099c69.709,-69.14 137.03,-135.665 236.874,-234.372c51.287,-50.718 108.6,-107.349 127.364,-125.885c18.763,-18.536 34.456,-33.774 34.797,-33.774c0.455,0 3.071,2.615 6.027,5.8Zm-206.283,378.452c0,1.251 -33.206,32.864 -40.484,38.55c-12.395,9.666 -26.496,16.489 -44.464,21.606c-10.348,2.843 -12.622,3.071 -32.182,2.957c-22.061,0 -28.543,-1.023 -45.146,-7.278c-11.599,-4.321 -30.817,-15.352 -29.452,-16.83c0.341,-0.455 9.552,-9.666 20.241,-20.356l19.674,-19.673l75.963,0c41.734,0 75.85,0.455 75.85,1.024Zm229.595,-61.635c8.074,27.406 4.663,59.588 -9.324,87.335c-3.412,7.05 -11.941,19.9 -13.078,19.9c-0.455,0 -2.274,-1.592 -4.321,-3.525l-3.525,-3.411l6.14,-9.211c10.576,-15.807 15.466,-26.724 19.901,-44.691c2.047,-8.302 2.502,-13.647 2.502,-28.43c0.113,-10.007 -0.228,-19.9 -0.683,-21.947c-1.478,-6.482 0.114,-3.867 2.388,3.98Zm-498.083,3.866c-2.16,17.854 1.024,41.735 8.188,60.157c3.525,9.211 11.827,24.108 17.285,31.045l3.412,4.321l-3.867,3.98c-2.047,2.161 -3.98,3.866 -4.435,3.866c-0.341,0 -2.729,-3.184 -5.345,-7.164c-16.83,-24.904 -24.335,-55.949 -20.241,-84.378c1.592,-11.827 4.776,-23.995 5.799,-22.971c0.341,0.227 0,5.345 -0.796,11.144Zm481.594,-26.269c6.141,18.536 8.074,40.825 5.231,59.134c-2.729,17.057 -11.485,38.322 -21.151,51.627l-4.094,5.459l-5.004,-4.89c-2.729,-2.729 -5.003,-5.345 -5.003,-5.8c0,-0.455 2.274,-4.093 5.117,-8.187c6.596,-9.439 14.442,-25.132 17.513,-35.366c5.799,-18.878 7.391,-43.099 4.094,-61.977c-0.91,-5.344 -1.706,-10.234 -1.706,-10.803c0,-2.388 2.388,2.502 5.003,10.803Zm-462.944,-1.023c-5.913,33.092 1.478,68.117 20.583,96.546l6.482,9.552l-5.118,5.004c-3.07,3.184 -5.458,4.776 -6.368,4.208c-2.274,-1.479 -10.689,-15.466 -15.124,-25.246c-11.145,-24.79 -13.646,-51.969 -7.051,-78.92c2.502,-10.234 7.165,-23.198 8.188,-22.288c0.227,0.227 -0.455,5.231 -1.592,11.144Zm420.641,-59.588c15.011,15.92 25.587,36.048 30.59,58.337c2.388,11.031 2.957,35.025 0.91,46.169c-3.07,17.172 -10.803,36.163 -20.014,49.24l-5.231,7.164l-20.242,-20.355l-20.355,-20.242l1.023,-49.467l1.024,-49.353l13.191,-12.851c7.164,-7.05 13.532,-12.85 13.987,-12.85c0.569,0 2.843,1.934 5.117,4.208Zm-347.862,5.117c0.455,20.242 0.796,54.357 0.796,75.964l0,39.346l-20.014,19.218c-11.031,10.69 -20.469,19.332 -21.152,19.332c-1.705,0 -12.622,-18.422 -16.602,-28.088c-10.803,-25.814 -12.282,-58.906 -3.98,-83.81c7.391,-22.289 16.147,-35.252 40.028,-59.588c10.235,-10.462 18.991,-18.991 19.446,-18.991c0.455,0 1.137,16.489 1.478,36.617Zm272.24,121.678c3.98,3.866 7.164,7.505 7.164,7.96c0,1.251 -77.1,1.137 -77.782,-0.113c-0.342,-0.569 2.501,-4.094 6.481,-7.961l7.051,-6.936l49.922,0l7.164,7.05Zm-77.1,0.455l-7.506,7.392l-75.395,-0.114c-41.506,0 -75.735,-0.341 -76.077,-0.682c-0.341,-0.342 2.388,-3.639 6.141,-7.278l6.823,-6.71l76.76,-0.113l76.759,0l-7.505,7.505Zm53.447,-24.336c3.866,3.867 6.937,7.506 6.937,7.961c0,0.454 -6.596,0.909 -14.784,0.909c-10.917,0 -14.783,-0.341 -14.783,-1.364c0,-1.82 12.623,-14.556 14.329,-14.556c0.796,0 4.435,3.184 8.301,7.05Zm-28.884,0.796l-7.961,7.733l-74.485,-0.455c-40.938,-0.227 -75.167,-0.568 -76.077,-0.682c-2.843,-0.341 10.576,-13.419 14.67,-14.328c1.933,-0.342 36.844,-0.569 77.669,-0.342l74.144,0.342l-7.96,7.732Zm86.311,-32.637c-0.455,21.493 -1.023,39.233 -1.251,39.574c-0.341,0.341 -3.866,-2.957 -7.96,-7.278l-7.505,-7.846l0.796,-25.018l0.796,-25.132l7.05,-6.595c3.867,-3.526 7.392,-6.482 7.961,-6.596c0.454,0 0.454,17.513 0.113,38.891Zm-280.996,-51.741l0.796,75.963l-7.392,7.278c-3.98,4.094 -7.619,7.164 -7.846,6.823c-0.341,-0.341 -0.91,-34.456 -1.365,-75.963l-0.796,-75.281l7.278,-7.392c3.98,-3.98 7.506,-7.278 7.96,-7.278c0.342,0 1.024,34.116 1.365,75.85Zm211.742,67.321l-153.519,0l61.408,-60.725l61.408,-60.726l38.095,0.114c20.924,0 55.494,0.455 76.646,0.796l38.664,0.682l-23.881,23.312c-13.078,12.851 -33.206,32.637 -44.805,44.009c-11.599,11.372 -28.429,27.747 -37.527,36.617l-16.489,15.921Zm44.919,-15.125c0,17.513 0.568,16.944 -8.529,7.847c-8.756,-8.643 -8.643,-7.733 -0.455,-16.034c3.98,-3.98 7.619,-7.278 8.074,-7.278c0.455,0 0.91,6.936 0.91,15.465Zm-233.008,-149.425c0.341,2.047 0.796,36.504 0.91,76.532l0.114,72.78l-7.392,7.391c-3.98,3.98 -7.505,7.051 -7.846,6.71c-0.228,-0.228 -0.683,-34.571 -0.796,-76.305l-0.455,-75.85l14.783,-15.01l0.682,3.752Zm133.391,-15.238l-0.682,34.343l-61.067,60.384l-60.952,60.384l-0.683,-41.962c-0.341,-22.971 -0.796,-57.427 -0.909,-76.532l-0.114,-34.684l62.317,-62.317l62.204,-62.203l0.341,44.008c0.227,24.336 0,59.588 -0.455,78.579Zm-193.775,57.882c0,1.365 -13.987,15.125 -15.352,15.125c-0.682,0 -4.776,-3.639 -9.097,-7.96l-7.847,-7.961l16.148,0c8.87,0 16.148,0.342 16.148,0.796Zm381.637,-7.619l-75.168,0c-44.122,0 -75.736,-0.454 -76.759,-1.137c-1.251,-0.796 -0.228,-2.388 5.458,-7.846l7.051,-6.937l75.963,0c41.848,0 76.418,0.341 76.873,0.796c0.341,0.455 -2.502,3.98 -6.368,7.96l-7.05,7.164Zm-370.72,-2.274l-52.424,0l-7.619,-7.278c-4.321,-3.98 -7.733,-7.619 -7.733,-7.96c0,-0.91 80.171,-0.796 81.195,0.114c0.341,0.454 -2.502,3.98 -6.368,7.96l-7.051,7.164Zm391.416,-37.982c5.8,0.455 10.462,1.251 10.462,1.82c0,1.706 -8.187,13.418 -9.552,13.532c-3.866,0.341 -149.198,-0.455 -149.539,-0.796c-0.341,-0.341 2.73,-3.866 6.71,-7.846l7.278,-7.392l62.203,0c34.115,0 66.752,0.341 72.438,0.682Zm-183.54,-53.106l-0.682,52.651l-5.345,5.345c-2.957,2.843 -6.596,6.255 -7.96,7.506l-2.616,2.274l0.796,-78.465l0.796,-78.465l7.506,-7.733l7.619,-7.733l0.341,25.928c0.227,14.214 0,49.694 -0.455,78.692Zm-170.69,51.173c1.706,0.682 0.796,1.933 -5.686,8.302l-7.847,7.505l-49.353,-0.569c-42.076,-0.568 -49.808,-0.909 -51.4,-2.388c-2.388,-2.047 -7.733,-10.917 -7.733,-12.622c0,-1.479 118.38,-1.706 122.019,-0.228Zm366.853,-120.541c13.077,25.473 17.854,54.812 13.191,81.195c-1.706,9.552 -5.572,22.971 -8.642,29.566l-1.479,3.298l-69.368,-0.796c-38.209,-0.455 -69.708,-1.137 -70.05,-1.364c-0.341,-0.228 25.473,-26.155 57.314,-57.542c31.841,-31.386 60.498,-59.701 63.682,-62.999c5.345,-5.345 5.913,-5.686 7.733,-4.094c1.137,1.024 4.548,6.709 7.619,12.736Zm-169.894,-12.167c-0.341,22.061 -0.796,55.721 -1.137,74.826l-0.455,34.684l-7.392,7.05c-4.094,3.98 -7.733,7.164 -8.074,7.164c-1.137,0 0.796,-154.087 1.933,-155.452c1.479,-1.819 12.509,-8.187 14.215,-8.301c1.023,0 1.251,9.097 0.91,40.029Zm-246.995,57.313c34.57,34.798 62.772,63.796 62.772,64.478c0,1.479 -8.756,1.592 -93.817,1.024l-46.624,-0.228l-1.82,-4.321c-12.508,-29.908 -12.281,-67.435 0.683,-99.162c3.866,-9.438 13.191,-25.018 14.897,-25.018c0.682,0 29.339,28.43 63.909,63.227Zm18.195,-18.99c34.797,35.025 63.341,64.136 63.341,64.591c0,0.569 -2.616,3.525 -5.686,6.596l-5.8,5.686l-63.568,-63.682c-35.025,-35.025 -63.568,-64.478 -63.682,-65.388c0,-1.933 8.984,-11.372 10.803,-11.372c0.796,0 29.794,28.657 64.592,63.569Zm311.814,-91.316c9.666,1.933 27.974,8.302 34.683,12.054c8.643,5.004 18.195,11.713 18.195,12.85c0,1.251 -125.544,125.886 -127.477,126.568c-1.024,0.455 0,-122.815 1.137,-136.12l0.682,-8.415l9.666,-3.298c19.332,-6.482 41.166,-7.733 63.114,-3.639Zm-272.354,-3.525c15.352,2.502 31.5,8.074 32.068,11.258c1.024,5.913 0.91,138.963 -0.113,140.555c-0.91,1.365 -13.647,-10.917 -64.819,-62.545l-63.682,-64.25l4.207,-3.753c5.345,-4.662 24.45,-14.101 35.366,-17.399c18.309,-5.458 38.323,-6.823 56.973,-3.866Zm54.357,21.834l3.639,2.729l0,101.777l-7.392,7.278c-3.98,3.98 -7.505,7.051 -7.846,6.71c-0.341,-0.342 -1.251,-122.474 -0.796,-125.317c0.113,-1.024 6.254,2.388 12.395,6.823Zm12.736,10.121l15.921,15.693l0,53.674l-7.96,7.847l-7.961,7.846l0,-85.06Zm33.888,33.888c3.867,3.98 7.051,7.96 7.051,8.756c0,1.592 -13.533,15.807 -15.011,15.807c-0.455,0 -0.91,-7.165 -0.91,-15.921c0,-8.756 0.341,-15.92 0.91,-15.92c0.455,0 3.98,3.297 7.96,7.278Z" style="fill:#ffe000;"/></g></svg>